<svg width="169" height="56" viewBox="0 0 109 26" fill="none" xmlns="http://www.w3.org/2000/svg">
<path d="M19.8053 7.11753C19.1687 7.11539 18.5365 7.22273 17.9363 7.43486C18.2344 6.59424 18.3264 5.69432 18.2045 4.81077C18.0826 3.92721 17.7504 3.08585 17.2358 2.35735C16.7212 1.62885 16.0392 1.03449 15.2472 0.624278C14.4553 0.214067 13.5764 0 12.6844 0C11.7925 0 10.9136 0.214067 10.1216 0.624278C9.32963 1.03449 8.64768 1.62885 8.13308 2.35735C7.61849 3.08585 7.28629 3.92721 7.1644 4.81077C7.04251 5.69432 7.13452 6.59424 7.43265 7.43486C6.59209 7.13715 5.69234 7.04551 4.80902 7.16765C3.92571 7.2898 3.08461 7.62213 2.35638 8.13676C1.62815 8.6514 1.03408 9.33333 0.624046 10.1252C0.214012 10.917 0 11.7957 0 12.6875C0 13.5792 0.214012 14.4579 0.624046 15.2497C1.03408 16.0416 1.62815 16.7235 2.35638 17.2381C3.08461 17.7528 3.92571 18.0851 4.80902 18.2073C5.69234 18.3294 6.59209 18.2378 7.43265 17.9401C7.13452 18.7807 7.04251 19.6806 7.1644 20.5641C7.28629 21.4477 7.61849 22.2891 8.13308 23.0176C8.64768 23.7461 9.32963 24.3404 10.1216 24.7506C10.9136 25.1608 11.7925 25.3749 12.6844 25.3749C13.5764 25.3749 14.4553 25.1608 15.2472 24.7506C16.0392 24.3404 16.7212 23.7461 17.2358 23.0176C17.7504 22.2891 18.0826 21.4477 18.2045 20.5641C18.3264 19.6806 18.2344 18.7807 17.9363 17.9401C18.7012 18.2121 19.5163 18.3137 20.3246 18.2377C21.1329 18.1617 21.9149 17.9101 22.6157 17.5003C23.3166 17.0905 23.9195 16.5326 24.3821 15.8655C24.8448 15.1984 25.1561 14.4381 25.2943 13.6381C25.4325 12.8381 25.3942 12.0176 25.182 11.2339C24.9699 10.4502 24.5891 9.72241 24.0663 9.1013C23.5434 8.4802 22.8912 7.98081 22.1552 7.63815C21.4192 7.29548 20.6172 7.11783 19.8053 7.11753V7.11753ZM7.44849 17.9369C8.65007 14.5458 8.65007 10.845 7.44849 7.45392C10.8397 8.65433 14.5403 8.65433 17.9315 7.45392C16.7311 10.8452 16.7311 14.5456 17.9315 17.9369C14.5407 16.7368 10.8408 16.7368 7.45008 17.9369H7.44849Z" fill="#01384D"/>
<path d="M31.6606 16.3992V8.79757C31.6606 8.78354 31.6661 8.77007 31.6759 8.76C31.6856 8.74993 31.6989 8.74407 31.713 8.74365H34.396C35.2295 8.74365 35.9245 8.91554 36.4809 9.25931C37.0258 9.5898 37.4617 10.0731 37.7343 10.6492C38.0188 11.2555 38.162 11.9184 38.1532 12.5881C38.1703 13.2959 38.0117 13.997 37.6915 14.6285C37.3956 15.1954 36.9407 15.6636 36.3825 15.9756C35.7733 16.305 35.0884 16.4691 34.396 16.4516H31.713C31.6992 16.4512 31.6861 16.4455 31.6764 16.4358C31.6667 16.4261 31.661 16.413 31.6606 16.3992V16.3992ZM36.9156 12.5913C36.9256 12.0951 36.8231 11.6031 36.6157 11.1522C36.4303 10.7506 36.1328 10.4112 35.7589 10.1748C35.3476 9.92964 34.8747 9.80737 34.396 9.82254H32.93C32.9159 9.82254 32.9024 9.82803 32.8924 9.8378C32.8823 9.84758 32.8764 9.86088 32.876 9.87491V15.3282C32.8764 15.3423 32.8823 15.3556 32.8924 15.3654C32.9024 15.3751 32.9159 15.3806 32.93 15.3806H34.396C34.8804 15.397 35.3587 15.2688 35.77 15.0125C36.1429 14.7666 36.4384 14.42 36.6221 14.0129C36.8237 13.5654 36.9239 13.0789 36.9156 12.5881V12.5913Z" fill="#01384D"/>
<path d="M39.4338 16.3993V8.79766C39.4338 8.78335 39.4395 8.76966 39.4496 8.75954C39.4598 8.74942 39.4735 8.74373 39.4878 8.74373H42.7959C43.1259 8.74082 43.4519 8.81529 43.7479 8.96112C44.034 9.10329 44.2904 9.29876 44.5032 9.53706C44.7149 9.77347 44.8835 10.0452 45.0014 10.3399C45.12 10.6294 45.1809 10.9394 45.1807 11.2522C45.1814 11.5867 45.119 11.9183 44.9966 12.2296C44.8796 12.5314 44.7001 12.8049 44.4699 13.0324C44.2606 13.2391 44.0096 13.3988 43.7336 13.5005C43.7262 13.5029 43.7194 13.507 43.7138 13.5124C43.7082 13.5179 43.7039 13.5245 43.7013 13.5319C43.6987 13.5393 43.6978 13.5471 43.6987 13.5549C43.6997 13.5627 43.7024 13.5701 43.7067 13.5767L45.4345 16.3724C45.4397 16.3803 45.4426 16.3895 45.443 16.3989C45.4433 16.4084 45.4411 16.4178 45.4365 16.4261C45.432 16.4344 45.4253 16.4413 45.4171 16.4461C45.4089 16.4509 45.3996 16.4533 45.3901 16.4532H44.1462C44.1372 16.4532 44.1284 16.4508 44.1206 16.4463C44.1129 16.4419 44.1064 16.4356 44.1017 16.4279L42.4611 13.7956C42.456 13.7882 42.4491 13.7822 42.4411 13.778C42.4331 13.7739 42.4242 13.7717 42.4152 13.7718H40.7063C40.6924 13.7718 40.6791 13.7773 40.6693 13.7872C40.6595 13.797 40.654 13.8103 40.654 13.8242V16.3993C40.654 16.4064 40.6526 16.4134 40.6499 16.4199C40.6471 16.4265 40.6432 16.4324 40.6382 16.4374C40.6331 16.4424 40.6272 16.4464 40.6206 16.4491C40.6141 16.4518 40.6071 16.4532 40.6 16.4532H39.4893C39.4821 16.4534 39.475 16.4522 39.4682 16.4496C39.4615 16.447 39.4554 16.4431 39.4502 16.438C39.445 16.433 39.4409 16.427 39.4381 16.4203C39.4353 16.4137 39.4338 16.4065 39.4338 16.3993V16.3993ZM40.6508 12.6437C40.6508 12.6576 40.6563 12.6709 40.6661 12.6808C40.6759 12.6906 40.6893 12.6961 40.7032 12.6961H42.7785C42.9935 12.6991 43.2034 12.6305 43.375 12.5009C43.555 12.3631 43.6969 12.1818 43.7876 11.9741C43.8926 11.748 43.9467 11.5016 43.9463 11.2522C43.9502 11.0109 43.8955 10.7722 43.7869 10.5566C43.6783 10.341 43.519 10.155 43.3227 10.0146C43.1474 9.88759 42.9363 9.81929 42.7198 9.81945H40.7095C40.6956 9.81945 40.6823 9.82497 40.6725 9.83479C40.6627 9.84461 40.6571 9.85793 40.6571 9.87182V12.6437H40.6508Z" fill="#01384D"/>
<path d="M51.8984 15.4314V16.3992C51.8984 16.4133 51.8929 16.4267 51.8832 16.4368C51.8734 16.4469 51.8601 16.4527 51.846 16.4532H46.664C46.65 16.4527 46.6367 16.4469 46.6269 16.4368C46.6171 16.4267 46.6117 16.4133 46.6117 16.3992V8.79757C46.6117 8.78354 46.6171 8.77007 46.6269 8.76C46.6367 8.74993 46.65 8.74407 46.664 8.74365H51.7413C51.7553 8.74407 51.7687 8.74993 51.7785 8.76C51.7882 8.77007 51.7937 8.78354 51.7937 8.79757V9.76544C51.7937 9.77948 51.7882 9.79295 51.7785 9.80302C51.7687 9.81309 51.7553 9.81895 51.7413 9.81937H47.8731C47.8592 9.81937 47.8459 9.82489 47.836 9.83471C47.8262 9.84452 47.8207 9.85785 47.8207 9.87174V11.9582C47.8207 11.9722 47.8262 11.9857 47.836 11.9958C47.8457 12.0059 47.859 12.0118 47.8731 12.0122H51.205C51.2189 12.0122 51.2322 12.0177 51.2421 12.0275C51.2519 12.0373 51.2574 12.0506 51.2574 12.0645V12.9689C51.2574 12.9828 51.2519 12.9961 51.2421 13.0059C51.2322 13.0157 51.2189 13.0213 51.205 13.0213H47.8731C47.859 13.0217 47.8457 13.0275 47.836 13.0376C47.8262 13.0477 47.8207 13.0611 47.8207 13.0752V15.3251C47.8207 15.339 47.8262 15.3523 47.836 15.3621C47.8459 15.3719 47.8592 15.3774 47.8731 15.3774H51.8397C51.8472 15.3768 51.8547 15.3777 51.8618 15.3801C51.8689 15.3825 51.8754 15.3864 51.8809 15.3915C51.8865 15.3965 51.8909 15.4027 51.8939 15.4096C51.8969 15.4165 51.8984 15.4239 51.8984 15.4314V15.4314Z" fill="#01384D"/>
<path d="M55.4209 8.74399H56.4983C56.5091 8.74403 56.5196 8.74742 56.5284 8.75367C56.5372 8.75992 56.5438 8.76875 56.5474 8.77893L59.5034 16.3805C59.5064 16.3886 59.5075 16.3973 59.5065 16.4058C59.5055 16.4144 59.5025 16.4226 59.4977 16.4297C59.4928 16.4369 59.4864 16.4428 59.4788 16.4469C59.4713 16.451 59.4628 16.4533 59.4542 16.4535H58.288C58.277 16.4533 58.2664 16.4499 58.2573 16.4437C58.2483 16.4375 58.2413 16.4288 58.2372 16.4186L57.5105 14.3925C57.5065 14.3823 57.4995 14.3735 57.4904 14.3673C57.4814 14.3611 57.4707 14.3577 57.4598 14.3575H54.4451C54.4343 14.3573 54.4237 14.3606 54.4148 14.3669C54.4059 14.3732 54.3994 14.3822 54.396 14.3925L53.6645 16.4186C53.6604 16.4288 53.6534 16.4375 53.6444 16.4437C53.6354 16.4499 53.6247 16.4533 53.6137 16.4535H52.4364C52.4278 16.4533 52.4194 16.451 52.4118 16.4469C52.4043 16.4428 52.3978 16.4369 52.393 16.4297C52.3882 16.4226 52.3852 16.4144 52.3842 16.4058C52.3832 16.3973 52.3842 16.3886 52.3873 16.3805L55.3638 8.7773C55.3685 8.76636 55.3766 8.75719 55.3869 8.75119C55.3971 8.74519 55.4091 8.74268 55.4209 8.74399ZM57.1472 13.3849L56.0096 10.2116C56.0055 10.2017 55.9986 10.1931 55.9897 10.1872C55.9808 10.1812 55.9703 10.178 55.9596 10.178C55.9489 10.178 55.9384 10.1812 55.9295 10.1872C55.9206 10.1931 55.9136 10.2017 55.9096 10.2116L54.7656 13.3849C54.7625 13.393 54.7614 13.4018 54.7624 13.4104C54.7635 13.4191 54.7667 13.4273 54.7717 13.4344C54.7768 13.4414 54.7835 13.4472 54.7913 13.451C54.7991 13.4549 54.8077 13.4567 54.8164 13.4564H57.098C57.1066 13.4564 57.115 13.4543 57.1226 13.4504C57.1302 13.4465 57.1367 13.4407 57.1415 13.4337C57.1464 13.4266 57.1495 13.4185 57.1505 13.41C57.1514 13.4015 57.1503 13.3929 57.1472 13.3849V13.3849Z" fill="#01384D"/>
<path d="M66.9684 16.3995V11.1635C66.9693 11.1513 66.9659 11.1391 66.9587 11.1291C66.9515 11.1191 66.941 11.112 66.9291 11.1089C66.9171 11.1059 66.9045 11.1071 66.8934 11.1125C66.8823 11.1178 66.8735 11.1269 66.8684 11.1381L64.7153 15.0952C64.7106 15.1037 64.7037 15.1109 64.6954 15.1159C64.687 15.1209 64.6775 15.1236 64.6678 15.1238H64.0141C64.0045 15.1237 63.9952 15.121 63.9871 15.116C63.9789 15.111 63.9724 15.1037 63.968 15.0952L61.8023 11.1286C61.7963 11.1187 61.7873 11.1111 61.7766 11.1068C61.7659 11.1024 61.7541 11.1016 61.7429 11.1044C61.7317 11.1073 61.7217 11.1136 61.7144 11.1226C61.7071 11.1315 61.7029 11.1425 61.7023 11.154V16.39C61.7023 16.404 61.6969 16.4175 61.6871 16.4275C61.6773 16.4376 61.664 16.4435 61.65 16.4439H60.5393C60.5322 16.4439 60.5252 16.4425 60.5187 16.4398C60.5121 16.4371 60.5062 16.4331 60.5012 16.4281C60.4961 16.4231 60.4922 16.4172 60.4895 16.4106C60.4867 16.4041 60.4854 16.397 60.4854 16.39V8.7883C60.4854 8.78121 60.4867 8.77423 60.4895 8.76769C60.4922 8.76114 60.4961 8.75519 60.5012 8.75018C60.5062 8.74517 60.5121 8.74119 60.5187 8.73848C60.5252 8.73577 60.5322 8.73438 60.5393 8.73438H61.7563C61.766 8.73454 61.7755 8.73726 61.7839 8.74228C61.7922 8.74729 61.7991 8.75444 61.8039 8.76296L64.2933 13.3642C64.298 13.3725 64.3048 13.3793 64.3131 13.3841C64.3213 13.3888 64.3306 13.3914 64.3401 13.3914C64.3496 13.3914 64.359 13.3888 64.3672 13.3841C64.3754 13.3793 64.3822 13.3725 64.3869 13.3642L66.8764 8.76296C66.8807 8.75446 66.8873 8.74731 66.8954 8.74228C66.9035 8.73724 66.9129 8.73449 66.9224 8.73438H68.1409C68.1552 8.73438 68.169 8.74006 68.1791 8.75018C68.1892 8.7603 68.1949 8.77399 68.1949 8.7883V16.39C68.1949 16.4043 68.1892 16.418 68.1791 16.4281C68.169 16.4382 68.1552 16.4439 68.1409 16.4439H67.0207C67.0082 16.4437 66.9961 16.4392 66.9866 16.4311C66.977 16.423 66.9706 16.4118 66.9684 16.3995Z" fill="#01384D"/>
<path d="M72.5535 12.5329C72.5573 11.5699 72.9057 10.6401 73.5356 9.91171C73.862 9.53582 74.2636 9.23261 74.7145 9.02162C75.2076 8.79442 75.7456 8.68111 76.2884 8.69004C76.9223 8.67397 77.5476 8.8391 78.0909 9.16603C78.561 9.44627 78.9452 9.85018 79.2015 10.3338C79.2074 10.3456 79.2088 10.3591 79.2056 10.3719C79.2024 10.3847 79.1948 10.3959 79.1841 10.4036L78.3177 10.9827C78.3115 10.9868 78.3045 10.9896 78.2971 10.9908C78.2897 10.992 78.2822 10.9917 78.275 10.9897C78.2678 10.9878 78.2611 10.9843 78.2553 10.9795C78.2495 10.9748 78.2448 10.9688 78.2416 10.9621C78.1187 10.6993 77.9407 10.4661 77.7196 10.2782C77.5098 10.1029 77.2654 9.97369 77.0024 9.899C76.7575 9.82773 76.5039 9.79089 76.2488 9.78953C75.8791 9.7811 75.5131 9.86509 75.1841 10.0339C74.8865 10.1928 74.6259 10.4129 74.4194 10.6797C74.2119 10.9504 74.0535 11.2554 73.9513 11.5809C73.8476 11.904 73.7941 12.2411 73.7926 12.5805C73.792 12.945 73.8548 13.3069 73.9783 13.6499C74.0939 13.9825 74.2686 14.2916 74.4939 14.5622C74.712 14.8231 74.9822 15.0355 75.2873 15.1858C75.5972 15.3396 75.9392 15.4179 76.2853 15.4142C76.5476 15.4118 76.8078 15.3679 77.0564 15.2842C77.3273 15.195 77.5796 15.0567 77.8005 14.8763C78.0224 14.6931 78.1984 14.4606 78.3146 14.1973C78.3175 14.1906 78.3217 14.1846 78.327 14.1796C78.3323 14.1747 78.3386 14.1709 78.3455 14.1685C78.3523 14.1661 78.3596 14.1652 78.3669 14.1658C78.3741 14.1663 78.3812 14.1684 78.3876 14.1719L79.3063 14.6954C79.3177 14.7021 79.3263 14.7128 79.3303 14.7253C79.3344 14.7379 79.3338 14.7516 79.3284 14.7637C79.1676 15.1298 78.9184 15.4503 78.6033 15.6966C78.2664 15.9646 77.8844 16.1703 77.4753 16.3043C77.078 16.4388 76.6618 16.5085 76.2424 16.5106C75.7261 16.5168 75.2158 16.3993 74.7541 16.1679C74.3106 15.9441 73.9158 15.6345 73.5927 15.2571C73.2673 14.8768 73.0102 14.4432 72.8327 13.9752C72.6516 13.5157 72.5569 13.0267 72.5535 12.5329V12.5329Z" fill="#01384D"/>
<path d="M80.4692 16.3992V8.79757C80.4692 8.78354 80.4747 8.77007 80.4845 8.76C80.4943 8.74993 80.5076 8.74407 80.5216 8.74365H81.6323C81.6463 8.74407 81.6596 8.74993 81.6694 8.76C81.6791 8.77007 81.6846 8.78354 81.6846 8.79757V15.3251C81.685 15.3391 81.6909 15.3524 81.701 15.3622C81.7111 15.372 81.7245 15.3774 81.7386 15.3774H85.7687C85.7827 15.3779 85.796 15.3837 85.8058 15.3938C85.8156 15.4039 85.821 15.4173 85.821 15.4314V16.3992C85.821 16.4133 85.8156 16.4267 85.8058 16.4368C85.796 16.4469 85.7827 16.4527 85.7687 16.4532H80.5216C80.5076 16.4527 80.4943 16.4469 80.4845 16.4368C80.4747 16.4267 80.4692 16.4133 80.4692 16.3992V16.3992Z" fill="#01384D"/>
<path d="M89.8067 16.5074C89.2854 16.5158 88.7692 16.4045 88.2978 16.1821C87.8542 15.9687 87.4585 15.6675 87.1347 15.2967C86.8105 14.925 86.5553 14.4983 86.3811 14.0369C86.2046 13.5776 86.1143 13.0898 86.1145 12.5978C86.1126 12.0939 86.2085 11.5944 86.397 11.127C86.5813 10.6675 86.8462 10.2447 87.1792 9.87831C87.5104 9.51409 87.9105 9.21916 88.3564 9.01046C88.8168 8.79586 89.3194 8.68741 89.8273 8.69313C90.348 8.68668 90.863 8.8018 91.3314 9.02944C91.7755 9.24821 92.1706 9.55483 92.4928 9.93068C92.8136 10.3044 93.0674 10.7305 93.2433 11.1905C93.6004 12.1228 93.5964 13.155 93.2322 14.0846C93.0513 14.5443 92.7885 14.9674 92.4564 15.3332C92.1248 15.6965 91.724 15.99 91.2775 16.1964C90.816 16.4067 90.3138 16.5128 89.8067 16.5074ZM87.3521 12.5978C87.3516 12.9563 87.4106 13.3123 87.5266 13.6514C87.6365 13.9806 87.8036 14.2877 88.0201 14.5589C88.2312 14.8198 88.4957 15.0325 88.796 15.1825C89.1138 15.338 89.464 15.4162 89.8178 15.411C90.1797 15.4179 90.5376 15.3355 90.8602 15.1713C91.1598 15.0155 91.4211 14.7949 91.625 14.5256C91.834 14.2506 91.9949 13.9421 92.101 13.6133C92.321 12.9433 92.321 12.2206 92.101 11.5506C91.9938 11.2222 91.8265 10.9166 91.6075 10.6494C91.3954 10.3895 91.1311 10.1771 90.8316 10.0259C90.5116 9.87359 90.1614 9.79551 89.807 9.79743C89.4526 9.79935 89.1032 9.88121 88.7849 10.037C88.4854 10.1909 88.2224 10.4073 88.0137 10.6716C87.8047 10.9426 87.6437 11.2475 87.5377 11.5729C87.4205 11.9022 87.3578 12.2484 87.3521 12.5978V12.5978Z" fill="#01384D"/>
<path d="M97.8398 16.5074C97.303 16.5229 96.7698 16.4143 96.2818 16.1901C95.8752 15.9938 95.5244 15.6987 95.2615 15.3317C94.9985 14.9575 94.807 14.5379 94.6967 14.0941C94.5756 13.6224 94.5154 13.1372 94.5174 12.6502V8.79464C94.5174 8.78061 94.5228 8.76714 94.5326 8.75707C94.5424 8.747 94.5557 8.74114 94.5698 8.74072H95.6804C95.6944 8.74114 95.7077 8.747 95.7175 8.75707C95.7273 8.76714 95.7327 8.78061 95.7327 8.79464V12.6502C95.7317 12.9949 95.7684 13.3386 95.8423 13.6752C95.9068 13.988 96.0243 14.2874 96.1897 14.5606C96.3476 14.8194 96.5701 15.0327 96.8355 15.1794C97.1505 15.3313 97.4957 15.4102 97.8454 15.4102C98.1951 15.4102 98.5403 15.3313 98.8553 15.1794C99.1191 15.0274 99.338 14.8085 99.49 14.5447C99.6495 14.2692 99.7652 13.9705 99.8327 13.6593C99.9057 13.328 99.9419 12.9896 99.9405 12.6502V8.79464C99.9405 8.78756 99.9419 8.78058 99.9446 8.77404C99.9474 8.76749 99.9513 8.76154 99.9563 8.75653C99.9614 8.75152 99.9673 8.74754 99.9739 8.74483C99.9804 8.74212 99.9874 8.74072 99.9945 8.74072H101.115C101.122 8.74072 101.129 8.74212 101.135 8.74483C101.142 8.74754 101.148 8.75152 101.153 8.75653C101.158 8.76154 101.162 8.76749 101.164 8.77404C101.167 8.78058 101.169 8.78756 101.169 8.79464V12.6502C101.172 13.1542 101.108 13.6562 100.978 14.1432C100.863 14.586 100.664 15.0024 100.391 15.3697C100.122 15.7253 99.7701 16.0102 99.3662 16.1996C98.8871 16.4158 98.3653 16.521 97.8398 16.5074Z" fill="#01384D"/>
<path d="M102.506 16.3992V8.79757C102.506 8.78354 102.512 8.77007 102.521 8.76C102.531 8.74993 102.545 8.74407 102.559 8.74365H105.242C106.075 8.74365 106.77 8.91554 107.326 9.25931C107.872 9.59014 108.308 10.0733 108.582 10.6492C108.865 11.2559 109.007 11.9186 108.999 12.5881C109.016 13.2959 108.857 13.997 108.537 14.6285C108.241 15.1949 107.787 15.663 107.23 15.9756C106.62 16.3048 105.934 16.4688 105.242 16.4516H102.559C102.545 16.4512 102.532 16.4455 102.522 16.4358C102.512 16.4261 102.507 16.413 102.506 16.3992V16.3992ZM107.761 12.5913C107.771 12.0953 107.669 11.6035 107.463 11.1522C107.276 10.7509 106.978 10.4116 106.605 10.1748C106.193 9.92964 105.72 9.80737 105.242 9.82254H103.776C103.762 9.82254 103.748 9.82803 103.738 9.8378C103.728 9.84758 103.722 9.86088 103.722 9.87491V15.3282C103.722 15.3423 103.728 15.3556 103.738 15.3654C103.748 15.3751 103.762 15.3806 103.776 15.3806H105.242C105.726 15.397 106.204 15.2688 106.616 15.0125C106.988 14.7666 107.284 14.42 107.468 14.0129C107.669 13.5654 107.769 13.0789 107.761 12.5881V12.5913Z" fill="#01384D"/>
</svg>
